<svg xmlns="http://www.w3.org/2000/svg" viewBox="0 0 420 260" role="img" aria-label="Interesting bee gallery"><rect width="420" height="260" fill="#1f2638"/><g transform="translate(78 72)"><ellipse cx="0" cy="32" rx="38" ry="24" fill="#f3c84f"/><path d="M-18 12c9 15 10 27 3 44M8 10c8 16 7 31-2 46" stroke="#25293b" stroke-width="7"/><circle cx="38" cy="26" r="15" fill="#25293b"/></g><g transform="translate(210 76)"><ellipse cx="0" cy="32" rx="44" ry="28" fill="#44bda8"/><path d="M-20 12c9 17 10 31 3 48M10 10c8 18 7 35-2 50" stroke="#25293b" stroke-width="8"/><circle cx="44" cy="27" r="17" fill="#25293b"/></g><g transform="translate(336 72)"><ellipse cx="0" cy="34" rx="42" ry="30" fill="#9b62d3"/><path d="M-19 12c9 17 10 31 3 48M10 10c8 18 7 35-2 50" stroke="#25293b" stroke-width="8"/><circle cx="44" cy="28" r="17" fill="#25293b"/></g><rect x="50" y="155" width="320" height="50" fill="#2d354c" stroke="#f2d36f" stroke-width="4"/><text x="210" y="187" text-anchor="middle" font-family="monospace" font-size="18" fill="#f2e7a8">many bees, many forms</text></svg>