<svg xmlns="http://www.w3.org/2000/svg" viewBox="0 0 420 260" role="img" aria-label="Bee visiting flower"><rect width="420" height="260" fill="#1f2638"/><circle cx="95" cy="145" r="42" fill="#f3d35f"/><g fill="#e98aa8"><circle cx="95" cy="85" r="38"/><circle cx="145" cy="125" r="38"/><circle cx="125" cy="190" r="38"/><circle cx="62" cy="190" r="38"/><circle cx="42" cy="125" r="38"/></g><circle cx="95" cy="145" r="27" fill="#f3d35f"/><g transform="translate(230 105)"><ellipse cx="0" cy="35" rx="55" ry="34" fill="#f3c84f"/><path d="M-34 8c14 20 16 42 6 62M0 2c14 24 16 50 2 70M32 9c10 19 8 39-4 58" stroke="#23283b" stroke-width="9"/><ellipse cx="-18" cy="-2" rx="24" ry="33" fill="#dce8ff" opacity=".74"/><ellipse cx="24" cy="-4" rx="28" ry="35" fill="#dce8ff" opacity=".64"/><circle cx="58" cy="28" r="22" fill="#23283b"/><circle cx="66" cy="22" r="4" fill="#fff"/></g><path d="M95 188c10 29 12 51 7 72" stroke="#63a867" stroke-width="8" fill="none"/></svg>