<svg xmlns="http://www.w3.org/2000/svg" viewBox="0 0 420 260" role="img" aria-label="Bee food basket"><rect width="420" height="260" fill="#202638"/><rect x="46" y="132" width="328" height="76" rx="16" fill="#80623a" stroke="#f0d072" stroke-width="6"/><circle cx="105" cy="116" r="34" fill="#d84040"/><circle cx="162" cy="105" r="30" fill="#6946a8"/><circle cx="221" cy="115" r="35" fill="#e88638"/><circle cx="292" cy="108" r="32" fill="#e0c44e"/><g transform="translate(205 42) scale(.72)"><ellipse cx="0" cy="35" rx="55" ry="34" fill="#f3c84f"/><path d="M-34 8c14 20 16 42 6 62M0 2c14 24 16 50 2 70M32 9c10 19 8 39-4 58" stroke="#23283b" stroke-width="9"/><ellipse cx="-18" cy="-2" rx="24" ry="33" fill="#dce8ff" opacity=".74"/><ellipse cx="24" cy="-4" rx="28" ry="35" fill="#dce8ff" opacity=".64"/><circle cx="58" cy="28" r="22" fill="#23283b"/></g><text x="210" y="235" text-anchor="middle" font-family="monospace" font-size="18" fill="#f2e7a8">pollination → harvest</text></svg>